<svg width="32" height="32" viewBox="0 0 32 32" fill="none" xmlns="http://www.w3.org/2000/svg">
<path d="M6.66667 28C5.93333 28 5.30578 27.7391 4.784 27.2173C4.26222 26.6956 4.00089 26.0676 4 25.3333V6.66667C4 5.93333 4.26133 5.30578 4.784 4.784C5.30667 4.26222 5.93422 4.00089 6.66667 4H21.3333L28 10.6667V25.3333C28 26.0667 27.7391 26.6947 27.2173 27.2173C26.6956 27.74 26.0676 28.0009 25.3333 28H6.66667ZM9.33333 22.6667H22.6667V20H9.33333V22.6667ZM9.33333 17.3333H22.6667V14.6667H9.33333V17.3333ZM20 12H25.3333L20 6.66667V12ZM9.33333 12H16V9.33333H9.33333V12Z" fill="#242424"/>
</svg>
